<svg xmlns="http://www.w3.org/2000/svg" class="plt-container" width="600.0" height="400.0">
  <style type="text/css">
  .plt-container {
	font-family: "Lucida Grande", sans-serif;
	cursor: crosshair;
	user-select: none;
	-webkit-user-select: none;
	-moz-user-select: none;
	-ms-user-select: none;
}
text {
	font-size: 15px;
	fill: #3d3d3d;
	
	text-rendering: optimizeLegibility;
}
.plt-data-tooltip text {
	font-size: 13px;
}
.plt-axis-tooltip text {
	font-size: 13px;
}
.plt-axis line {
	shape-rendering: crispedges;
}
.plt-plot-title text {

  font-size: 16.0px;
  font-weight: bold;
}
.plt-plot-subtitle text {

  font-size: 15.0px;
}
.plt-plot-caption text {

  font-size: 13.0px;
}
.plt-axis .tick text {

  font-size: 13.0px;
}
.plt-axis.small-tick-font .tick text {

  font-size: 11.0px;
}
.plt-axis-title text {

  font-size: 15.0px;
}
.plt_legend .legend-title text {

  font-size: 15.0px;
}
.plt_legend text {

  font-size: 13.0px;
}

  </style>
  <g class="plt-plot">
    <rect x="0.0" y="0.0" height="400.0" width="600.0" stroke="rgb(71,71,71)" stroke-opacity="1.0" stroke-width="0.0" fill="rgb(255,255,255)" fill-opacity="0.99">
    </rect>
    <g transform="translate(77.3125 10.0 ) ">
      <g transform="translate(0.0 387.0 ) " class="plt-axis">
      </g>
      <g transform="" class="plt-axis">
      </g>
      <g transform="" clip-path="url(#evx8Q0)" clip-bounds-jfx="[rect (0.0, 0.0), (435.375, 387.0)]">
        <defs>
          <clipPath id="evx8Q0">
            <rect x="0.0" y="0.0" width="435.375" height="387.0">
            </rect>
          </clipPath>
        </defs>
        <g>
          <path d="M195.69886363636365 193.5 L195.69886363636365 193.5 L195.69886363636365 17.590909090909093 L198.76890058692217 17.617700897489357 L201.83800237448543 17.698068156186338 L204.90523412091787 17.831986386354515 L207.96966151771662 18.01941479520366 L211.0303511106108 18.260296290224773 L214.08637058390087 18.554557496581026 L217.13678904445095 18.90210877945836 L220.18067730524788 19.302844271369224 L223.21710816844063 19.756641904400766 L226.24515670777367 20.26336344739795 L229.26390055032857 20.822854548070012 L232.2724201574877 21.43494478000781 L235.26979910503445 22.099447694597245 L238.2551243623052 22.81616087781336 L241.22748657030706 23.584866011877523 L244.1859803187176 24.405328941759365 L247.12970442168142 25.277299746502393 L250.0577621923203 26.20051281535254 L252.96926171587256 27.174686928665636 L255.863316121379 28.199525343569746 L258.7390438518324 29.274715884355885 L261.59556893270815 30.399931037569672 L264.43202123879496 31.574828051775256 L267.2475367592431 32.79904904196067 L270.0412578607503 34.072221098552944 L272.8123335488059 35.39395640101017 L275.5599197269112 36.76385233595528 L278.2831794536999 38.18149161981603 L280.9812831978784 39.64644242593357 L283.6534090909091 41.158258516101 L286.29874317735954 42.71647937649206 L288.9164796628411 44.3206303579378 L291.5058211594616 45.97022282050949 L294.06597892871775 47.664754282363134 L296.5961731217522 49.40370857280007 L299.09563301690326 51.18655598949789 L301.56359725447396 53.01275345986258 L303.9993140686499 54.8817447064539 L306.40204151649414 56.792960416432834 L308.77104770395033 58.745818414979766 L311.1056110087847 60.73972384263055 L313.4050203003992 62.77406933647657 L315.6685751564486 64.84823521517319 L317.89558607619637 66.9615896677009 L320.08537469054266 69.11348894582095 L322.23727396866275 71.30327756016729 L324.35062842119044 73.53028847991504 L326.4247942998871 75.79384333596448 L328.45913979373313 78.09325262757895 L330.4530452213839 80.42781593241331 L332.4059032199308 82.79682211986949 L334.3171189299097 85.19954956771375 L336.1861101765011 87.63526638188968 L338.0123076468658 90.1032306194604 L339.7951550635636 92.60269051461142 L341.5341093540005 95.1328847076459 L343.22864081585413 97.69304247690204 L344.87823327842585 100.2823839735226 L346.48238425987154 102.90012045900407 L348.0406051202626 105.54545454545453 L349.5524212104301 108.21758043848524 L351.0173720165476 110.91568418266374 L352.43501130040835 113.63894390945245 L353.8049072353535 116.38653008755774 L355.1266425378107 119.15760577561332 L356.399814594403 121.95132687712061 L357.62403558458834 124.76684239756864 L358.79893259879395 127.6032947036555 L359.9241477520078 130.45981978453125 L360.9993382927939 133.33554751498463 L362.024176707698 136.22960192049106 L362.9983508210111 139.14110144404333 L363.92156388986126 142.0691592146822 L364.7935346946043 145.01288331764607 L365.61399762448616 147.9713770660566 L366.3827027585503 150.94373927405843 L367.09941594176644 153.92906453132923 L367.7639188563558 156.92644347887597 L368.37600908829364 159.93496308603505 L368.9355001889657 162.95370692858998 L369.4422217319629 165.98175546792302 L369.89601936499446 169.01818633111571 L370.2967548569053 172.06207459191268 L370.64430613978266 175.11249305246278 L370.9385673461389 178.16851252575287 L371.17944884116 181.229202118647 L371.3668772500091 184.29362951544576 L371.5007954801773 187.36086126187823 L371.5811627388743 190.4299630494415 L371.60795454545456 193.5 L371.5811627388743 196.5700369505585 L371.5007954801773 199.63913873812172 L371.3668772500091 202.70637048455418 L371.17944884116 205.77079788135296 L370.9385673461389 208.83148747424715 L370.64430613978266 211.8875069475372 L370.2967548569053 214.9379254080873 L369.89601936499446 217.98181366888423 L369.44222173196283 221.018244532077 L368.9355001889657 224.04629307141002 L368.37600908829364 227.06503691396492 L367.7639188563559 230.07355652112398 L367.09941594176644 233.07093546867077 L366.3827027585503 236.05626072594157 L365.61399762448616 239.02862293394344 L364.7935346946043 241.98711668235393 L363.92156388986126 244.93084078531777 L362.9983508210112 247.85889855595664 L362.024176707698 250.77039807950888 L360.99933829279394 253.66445248501537 L359.9241477520078 256.54018021546875 L358.79893259879395 259.3967052963445 L357.6240355845884 262.23315760243133 L356.399814594403 265.04867312287934 L355.12664253781077 267.8423942243867 L353.8049072353535 270.61346991244227 L352.4350113004084 273.36105609054755 L351.01737201654765 276.0843158173362 L349.5524212104301 278.78241956151476 L348.0406051202626 281.4545454545454 L346.4823842598716 284.0998795409959 L344.8782332784259 286.7176160264774 L343.22864081585413 289.30695752309794 L341.5341093540005 291.8671152923541 L339.7951550635636 294.3973094853885 L338.0123076468658 296.8967693805396 L336.1861101765011 299.36473361811034 L334.3171189299097 301.80045043228625 L332.4059032199308 304.20317788013045 L330.4530452213839 306.5721840675867 L328.459139793733 308.9067473724211 L326.4247942998871 311.2061566640355 L324.35062842119044 313.46971152008496 L322.2372739686628 315.6967224398327 L320.0853746905427 317.88651105417904 L317.8955860761963 320.0384103322991 L315.66857515644864 322.1517647848268 L313.4050203003992 324.2259306635234 L311.1056110087847 326.26027615736945 L308.7710477039504 328.2541815850202 L306.4020415164942 330.2070395835671 L303.99931406864994 332.1182552935461 L301.56359725447396 333.98724654013745 L299.09563301690326 335.8134440105021 L296.59617312175226 337.59629142719984 L294.06597892871775 339.3352457176369 L291.50582115946156 341.0297771794905 L288.9164796628411 342.67936964206217 L286.2987431773596 344.2835206235079 L283.6534090909091 345.841741483899 L280.98128319787844 347.35355757406643 L278.2831794537 348.81850838018397 L275.55991972691123 350.23614766404467 L272.8123335488059 351.6060435989898 L270.0412578607503 352.927778901447 L267.2475367592431 354.2009509580393 L264.4320212387951 355.4251719482247 L261.5955689327082 356.6000689624303 L258.7390438518324 357.7252841156441 L255.86331612137906 358.8004746564302 L252.96926171587265 359.82531307133434 L250.05776219232033 360.79948718464743 L247.12970442168148 361.7227002534976 L244.18598031871767 362.5946710582406 L241.22748657030712 363.4151339881224 L238.2551243623052 364.18383912218667 L235.26979910503442 364.90055230540275 L232.2724201574877 365.5650552199922 L229.2639005503286 366.17714545192996 L226.24515670777367 366.736636552602 L223.21710816844066 367.2433580955992 L220.18067730524794 367.6971557286308 L217.13678904445098 368.09789122054167 L214.08637058390093 368.445442503419 L211.03035111061087 368.7397037097752 L207.96966151771664 368.98058520479634 L204.90523412091787 369.1680136136455 L201.83800237448537 369.3019318438137 L198.76890058692214 369.3822991025106 L195.69886363636368 369.4090909090909 L195.69886363636365 193.5 Z" fill="rgb(102,194,165)" stroke-width="1.0" stroke="rgb(0,0,0)" stroke-opacity="0.0" fill-opacity="1.0">
          </path>
        </g>
        <g>
          <path d="M195.69886363636365 193.5 L195.69886363636365 193.5 L195.69886363636368 369.4090909090909 L192.6288266858052 369.3822991025106 L189.5597248982419 369.3019318438137 L186.4924931518095 369.1680136136455 L183.42806575501078 368.9805852047964 L180.36737616211656 368.7397037097752 L177.3113566888265 368.44544250341903 L174.2609382282763 368.09789122054167 L171.2170499674794 367.6971557286308 L168.1806191042867 367.2433580955992 L165.1525705649536 366.736636552602 L162.13382672239874 366.17714545192996 L159.12530711523968 365.5650552199922 L156.12792816769286 364.90055230540275 L153.14260291042214 364.18383912218667 L150.1702407024203 363.4151339881225 L147.21174695400975 362.59467105824064 L144.26802285104594 361.7227002534976 L141.33996508040696 360.79948718464743 L138.42846555685472 359.82531307133434 L135.5344111513483 358.80047465643025 L132.6586834208949 357.7252841156441 L129.80215834001913 356.6000689624303 L126.96570603393235 355.4251719482247 L124.15019051348432 354.20095095803936 L121.35646941197702 352.9277789014471 L118.58539372392146 351.60604359898986 L115.8378075458162 350.2361476640448 L113.1145478190274 348.81850838018397 L110.41644407484893 347.3535575740665 L107.74431818181819 345.841741483899 L105.09898409536777 344.2835206235079 L102.48124760988627 342.6793696420622 L99.8919061132657 341.0297771794905 L97.33174834400958 339.3352457176369 L94.80155415097514 337.59629142719996 L92.30209425582409 335.81344401050217 L89.83413001825339 333.98724654013745 L87.39841320407749 332.1182552935461 L84.99568575623313 330.20703958356717 L82.62667956877698 328.2541815850202 L80.29211626394259 326.2602761573694 L77.99270697232814 324.2259306635234 L75.72915211627871 322.1517647848268 L73.50214119653094 320.03841033229907 L71.31235258218463 317.8865110541791 L69.16045330406462 315.69672243983274 L67.0470988515369 313.46971152008507 L64.97293297284025 311.2061566640356 L62.938587478994265 308.90674737242114 L60.94468205134345 306.5721840675867 L58.99182405279646 304.20317788013045 L57.08060834281753 301.8004504322862 L55.211617096226234 299.36473361811034 L53.385419625861545 296.8967693805396 L51.60257220916378 294.39730948538863 L49.86361791872682 291.8671152923542 L48.169086456873146 289.30695752309794 L46.519493994301456 286.71761602647746 L44.91534301285574 284.09987954099597 L43.35712215246471 281.4545454545455 L41.8453060622972 278.7824195615147 L40.38035525617968 276.08431581733623 L38.96271597231896 273.36105609054755 L37.592820037373855 270.6134699124423 L36.27108473491663 267.8423942243868 L34.9979126783243 265.0486731228794 L33.77369168813894 262.23315760243133 L32.598794673933355 259.3967052963446 L31.47357952071954 256.5401802154688 L30.39838897993343 253.6644524850155 L29.37355056502929 250.7703980795089 L28.399376451716194 247.85889855595667 L27.476163382866076 244.93084078531786 L26.60419257812299 241.9871166823539 L25.783729648241177 239.0286229339434 L25.015024514177014 236.05626072594157 L24.298311330960928 233.07093546867083 L23.633808416371494 230.07355652112412 L23.021718184433695 227.06503691396506 L22.462227083761604 224.04629307141002 L21.95550554076445 221.018244532077 L21.50170790773288 217.98181366888414 L21.100972415821985 214.93792540808727 L20.753421132944652 211.8875069475372 L20.459159926588427 208.83148747424715 L20.218278431567313 205.770797881353 L20.03085002271817 202.7063704845543 L19.89693179255002 199.6391387381219 L19.81656453385301 196.57003695055852 L19.789772727272748 193.50000000000003 L195.69886363636365 193.5 Z" fill="rgb(252,141,98)" stroke-width="1.0" stroke="rgb(0,0,0)" stroke-opacity="0.0" fill-opacity="1.0">
          </path>
        </g>
        <g>
          <path d="M195.69886363636365 193.5 L195.69886363636365 193.5 L19.789772727272748 193.50000000000003 L19.81656453385301 190.42996304944157 L19.896931792549992 187.36086126187817 L20.03085002271817 184.29362951544576 L20.218278431567285 181.22920211864707 L20.459159926588427 178.1685125257529 L20.753421132944652 175.11249305246287 L21.100972415822014 172.06207459191265 L21.50170790773288 169.01818633111577 L21.95550554076442 165.98175546792305 L22.462227083761604 162.95370692859004 L23.021718184433666 159.93496308603517 L23.633808416371465 156.9264434788761 L24.2983113309609 153.92906453132923 L25.015024514176986 150.9437392740585 L25.783729648241206 147.9713770660565 L26.604192578123047 145.01288331764601 L27.476163382866048 142.06915921468223 L28.399376451716165 139.1411014440434 L29.373550565029262 136.22960192049115 L30.398388979933372 133.33554751498474 L31.473579520719483 130.4598197845314 L32.59879467393333 127.6032947036555 L33.77369168813891 124.76684239756871 L34.997912678324354 121.95132687712054 L36.2710847349166 119.15760577561329 L37.592820037373826 116.38653008755774 L38.96271597231893 113.63894390945248 L40.380355256179655 110.91568418266382 L41.84530606229717 108.21758043848536 L43.35712215246468 105.54545454545453 L44.915343012855715 102.90012045900411 L46.51949399430143 100.28238397352263 L48.16908645687312 97.69304247690214 L49.8636179187267 95.132884707646 L51.602572209163725 92.60269051461145 L53.385419625861516 90.10323061946045 L55.211617096226206 87.63526638188975 L57.080608342817584 85.1995495677137 L58.99182405279652 82.79682211986949 L60.94468205134342 80.42781593241332 L62.93858747899418 78.09325262757899 L64.97293297284017 75.79384333596457 L67.04709885153676 73.53028847991511 L69.16045330406446 71.30327756016742 L71.31235258218459 69.11348894582099 L73.5021411965309 66.96158966770096 L75.72915211627874 64.84823521517316 L77.99270697232816 62.77406933647657 L80.29211626394259 60.73972384263058 L82.62667956877692 58.74581841497982 L84.99568575623309 56.79296041643292 L87.3984132040773 54.881744706453986 L89.83413001825335 53.01275345986258 L92.30209425582403 51.18655598949789 L94.80155415097502 49.40370857280013 L97.33174834400947 47.66475428236316 L99.89190611326573 45.97022282050949 L102.4812476098861 44.32063035793789 L105.09898409536771 42.71647937649209 L107.74431818181813 41.15825851610106 L110.41644407484894 39.64644242593354 L113.11454781902741 38.18149161981606 L115.83780754581608 36.763852335955306 L118.58539372392147 35.39395640101014 L121.35646941197689 34.07222109855297 L124.15019051348426 32.79904904196064 L126.96570603393215 31.57482805177534 L129.80215834001908 30.3999310375697 L132.65868342089485 29.274715884355913 L135.5344111513483 28.199525343569746 L138.42846555685458 27.174686928665693 L141.33996508040696 26.20051281535254 L144.26802285104594 25.277299746502365 L147.2117469540096 24.405328941759393 L150.17024070242024 23.584866011877523 L153.14260291042208 22.81616087781336 L156.1279281676928 22.099447694597274 L159.12530711523954 21.43494478000784 L162.13382672239874 20.822854548070012 L165.15257056495346 20.26336344739798 L168.18061910428662 19.756641904400794 L171.21704996747934 19.302844271369224 L174.26093822827625 18.90210877945836 L177.31135668882644 18.554557496581026 L180.3673761621165 18.260296290224773 L183.4280657550108 18.01941479520363 L186.49249315180936 17.831986386354515 L189.5597248982419 17.698068156186338 L192.628826685805 17.617700897489357 L195.6988636363636 17.590909090909093 L195.69886363636365 193.5 Z" fill="rgb(141,160,203)" stroke-width="1.0" stroke="rgb(0,0,0)" stroke-opacity="0.0" fill-opacity="1.0">
          </path>
        </g>
      </g>
      <g transform="" clip-path="url(#jObsTw)" clip-bounds-jfx="[rect (0.0, 0.0), (435.375, 387.0)]">
        <defs>
          <clipPath id="jObsTw">
            <rect x="0.0" y="0.0" width="435.375" height="387.0">
            </rect>
          </clipPath>
        </defs>
        <g>
          <path d="M371.60795454545456 193.5 L371.60795454545456 193.5 L406.78977272727275 193.5 " fill="none" stroke-width="1.0" stroke="rgb(0,0,0)" stroke-opacity="1.0">
          </path>
        </g>
      </g>
      <g transform="" clip-path="url(#e6OIXk)" clip-bounds-jfx="[rect (0.0, 0.0), (435.375, 387.0)]">
        <defs>
          <clipPath id="e6OIXk">
            <rect x="0.0" y="0.0" width="435.375" height="387.0">
            </rect>
          </clipPath>
        </defs>
        <g>
          <path d="M46.43505037134884 342.76381326501485 L46.43505037134884 342.76381326501485 L71.31235258218463 317.8865110541791 " fill="none" stroke-width="1.0" stroke="rgb(0,0,0)" stroke-opacity="1.0">
          </path>
        </g>
      </g>
      <g transform="" clip-path="url(#DHQayp)" clip-bounds-jfx="[rect (0.0, 0.0), (435.375, 387.0)]">
        <defs>
          <clipPath id="DHQayp">
            <rect x="0.0" y="0.0" width="435.375" height="387.0">
            </rect>
          </clipPath>
        </defs>
        <g>
          <path d="M46.43505037134878 44.23618673498518 L46.43505037134878 44.23618673498518 L71.31235258218459 69.11348894582099 " fill="none" stroke-width="1.0" stroke="rgb(0,0,0)" stroke-opacity="1.0">
          </path>
        </g>
      </g>
      <g transform="" clip-path="url(#9CudpD)" clip-bounds-jfx="[rect (0.0, 0.0), (435.375, 387.0)]">
        <defs>
          <clipPath id="9CudpD">
            <rect x="0.0" y="0.0" width="435.375" height="387.0">
            </rect>
          </clipPath>
        </defs>
        <g transform="translate(415.58522727272725 193.5 ) ">
          <text style="fill:#3d3d3d;font:14.0px sans-serif;" fill-opacity="1.0" text-anchor="middle" dy="0.7em">
          Gr-C
          </text>
        </g>
        <g transform="translate(40.21572481863987 348.98313881772384 ) ">
          <text style="fill:#3d3d3d;font:14.0px sans-serif;" fill-opacity="1.0" text-anchor="middle" dy="0.35em">
          Gr-A
          </text>
        </g>
        <g transform="translate(40.21572481863981 38.016861182276244 ) ">
          <text style="fill:#3d3d3d;font:14.0px sans-serif;" fill-opacity="1.0" text-anchor="middle" dy="0.35em">
          Gr-B
          </text>
        </g>
      </g>
    </g>
  </g>
</svg>